<mxfile host="app.diagrams.net" agent="Mozilla/5.0 (Windows NT 10.0; Win64; x64) AppleWebKit/537.36 (KHTML, like Gecko) Chrome/141.0.0.0 Safari/537.36" version="28.2.8">
  <diagram name="Page-1" id="KiRBWLdKwDQl0hlu07jS">
    <mxGraphModel dx="786" dy="417" grid="1" gridSize="10" guides="1" tooltips="1" connect="1" arrows="1" fold="1" page="1" pageScale="1" pageWidth="3000" pageHeight="3000" math="0" shadow="0">
      <root>
        <mxCell id="0" />
        <mxCell id="1" parent="0" />
        <mxCell id="LeicX2cD45EZayEKqath-3" value="" style="edgeStyle=orthogonalEdgeStyle;rounded=0;orthogonalLoop=1;jettySize=auto;html=1;" parent="1" source="LeicX2cD45EZayEKqath-1" target="LeicX2cD45EZayEKqath-2" edge="1">
          <mxGeometry relative="1" as="geometry" />
        </mxCell>
        <mxCell id="LeicX2cD45EZayEKqath-1" value="Chime, the newest best video game ever." style="rounded=0;whiteSpace=wrap;html=1;" parent="1" vertex="1">
          <mxGeometry x="30" y="20" width="120" height="60" as="geometry" />
        </mxCell>
        <mxCell id="LeicX2cD45EZayEKqath-5" value="" style="edgeStyle=orthogonalEdgeStyle;rounded=0;orthogonalLoop=1;jettySize=auto;html=1;" parent="1" source="LeicX2cD45EZayEKqath-2" target="LeicX2cD45EZayEKqath-4" edge="1">
          <mxGeometry relative="1" as="geometry" />
        </mxCell>
        <mxCell id="LeicX2cD45EZayEKqath-2" value="So, how does it start. I&#39;m happy you asked, I&#39;ll show you." style="whiteSpace=wrap;html=1;rounded=0;" parent="1" vertex="1">
          <mxGeometry x="230" y="20" width="120" height="60" as="geometry" />
        </mxCell>
        <mxCell id="LeicX2cD45EZayEKqath-7" value="" style="edgeStyle=orthogonalEdgeStyle;rounded=0;orthogonalLoop=1;jettySize=auto;html=1;" parent="1" source="LeicX2cD45EZayEKqath-4" target="LeicX2cD45EZayEKqath-6" edge="1">
          <mxGeometry relative="1" as="geometry" />
        </mxCell>
        <mxCell id="LeicX2cD45EZayEKqath-4" value="First we need a little bit of a background story. It&#39;ll be something like this:" style="whiteSpace=wrap;html=1;rounded=0;" parent="1" vertex="1">
          <mxGeometry x="230" y="160" width="120" height="60" as="geometry" />
        </mxCell>
        <mxCell id="LeicX2cD45EZayEKqath-9" value="" style="edgeStyle=orthogonalEdgeStyle;rounded=0;orthogonalLoop=1;jettySize=auto;html=1;" parent="1" source="LeicX2cD45EZayEKqath-6" target="LeicX2cD45EZayEKqath-8" edge="1">
          <mxGeometry relative="1" as="geometry" />
        </mxCell>
        <mxCell id="LeicX2cD45EZayEKqath-6" value="Long ago, in an ancient land, civilizations and kingdoms prospered.&lt;div&gt;There was peace in the land. Until, an ancient power of evil fell upon the land, causing blight to appear everywhere. The blight consumed the crops and rotted structures, leaving many homeless and starving.&lt;/div&gt;" style="whiteSpace=wrap;html=1;rounded=0;" parent="1" vertex="1">
          <mxGeometry x="30" y="110" width="120" height="240" as="geometry" />
        </mxCell>
        <mxCell id="LeicX2cD45EZayEKqath-11" value="" style="edgeStyle=orthogonalEdgeStyle;rounded=0;orthogonalLoop=1;jettySize=auto;html=1;" parent="1" source="LeicX2cD45EZayEKqath-8" target="LeicX2cD45EZayEKqath-10" edge="1">
          <mxGeometry relative="1" as="geometry" />
        </mxCell>
        <mxCell id="LeicX2cD45EZayEKqath-8" value="Life was difficult and food was near impossible to find. One day, you leave your family at your crumbling home and go searching for food.&lt;div&gt;While hunting for deer, you fall into a sinkhole, and fall hundreds of feet into the ground.&lt;/div&gt;" style="whiteSpace=wrap;html=1;rounded=0;" parent="1" vertex="1">
          <mxGeometry x="30" y="400" width="120" height="230" as="geometry" />
        </mxCell>
        <mxCell id="LeicX2cD45EZayEKqath-13" value="" style="edgeStyle=orthogonalEdgeStyle;rounded=0;orthogonalLoop=1;jettySize=auto;html=1;" parent="1" source="LeicX2cD45EZayEKqath-10" target="LeicX2cD45EZayEKqath-12" edge="1">
          <mxGeometry relative="1" as="geometry" />
        </mxCell>
        <mxCell id="LeicX2cD45EZayEKqath-10" value="You awake, in shallow water. You find that you&#39;re in a cave, with blight covering the walls and consuming all living things. (Game starts here) While trying to find your way out, you stumble upon an old note on the ground. The note reads:" style="whiteSpace=wrap;html=1;rounded=0;" parent="1" vertex="1">
          <mxGeometry x="230" y="400" width="120" height="230" as="geometry" />
        </mxCell>
        <mxCell id="LeicX2cD45EZayEKqath-16" value="" style="edgeStyle=orthogonalEdgeStyle;rounded=0;orthogonalLoop=1;jettySize=auto;html=1;" parent="1" source="LeicX2cD45EZayEKqath-12" target="LeicX2cD45EZayEKqath-15" edge="1">
          <mxGeometry relative="1" as="geometry" />
        </mxCell>
        <mxCell id="LeicX2cD45EZayEKqath-12" value="&lt;div&gt;To whom this may find, I ask for your help. I&#39;ve ventured down deep into this cave system, searching for the source of the blight. If you&#39;ve already tried getting out of these caves and have failed, I can reassure you, there is no way out.&lt;/div&gt;&lt;div&gt;I searched for five days before giving up.&lt;/div&gt;" style="whiteSpace=wrap;html=1;rounded=0;" parent="1" vertex="1">
          <mxGeometry x="230" y="250" width="270" height="90" as="geometry" />
        </mxCell>
        <mxCell id="LeicX2cD45EZayEKqath-18" value="" style="edgeStyle=orthogonalEdgeStyle;rounded=0;orthogonalLoop=1;jettySize=auto;html=1;" parent="1" source="LeicX2cD45EZayEKqath-15" target="LeicX2cD45EZayEKqath-17" edge="1">
          <mxGeometry relative="1" as="geometry" />
        </mxCell>
        <mxCell id="LeicX2cD45EZayEKqath-15" value="It is your choice, but if you ask me your best chance at surviving is to venture down into the caves to find the source of the blight and destroy it. And who knows, maybe our paths might meet. As for you, good luck. Nobody knows what lurks beyond the light, but I have faith that you can overcome.&lt;div&gt;&amp;nbsp;- Craig Lee Thomas&lt;/div&gt;" style="whiteSpace=wrap;html=1;rounded=0;" parent="1" vertex="1">
          <mxGeometry x="420" y="50" width="180" height="160" as="geometry" />
        </mxCell>
        <mxCell id="1wYPcUTcYn6zx2gRJm-w-2" value="" style="edgeStyle=orthogonalEdgeStyle;rounded=0;orthogonalLoop=1;jettySize=auto;html=1;" parent="1" source="LeicX2cD45EZayEKqath-17" target="1wYPcUTcYn6zx2gRJm-w-1" edge="1">
          <mxGeometry relative="1" as="geometry" />
        </mxCell>
        <mxCell id="LeicX2cD45EZayEKqath-17" value="Oh and if you&#39;re wondering who Craig Lee Thomas is, it&#39;s the voice actor for John Helldiver in the Helldivers 2 intro scene. Just thought I&#39;d make it a little funny. Anyways, get ready for the journey of a lifetime. Oh, and get ready for art. This is about to be so painful." style="whiteSpace=wrap;html=1;rounded=0;" parent="1" vertex="1">
          <mxGeometry x="690" y="30" width="120" height="200" as="geometry" />
        </mxCell>
        <mxCell id="1wYPcUTcYn6zx2gRJm-w-4" value="" style="edgeStyle=orthogonalEdgeStyle;rounded=0;orthogonalLoop=1;jettySize=auto;html=1;" parent="1" source="1wYPcUTcYn6zx2gRJm-w-1" target="1wYPcUTcYn6zx2gRJm-w-3" edge="1">
          <mxGeometry relative="1" as="geometry" />
        </mxCell>
        <mxCell id="1wYPcUTcYn6zx2gRJm-w-1" value="So essentially, you wake up in the cave and find the note left behind. You then go through the caves discovering notes left by Craig, and finding shrines which give you valuable information, and function similar to checkpoints. As you journey farther, you discover more and more of Craig&#39;s story, and eventually discover that you need to retrieve the chime. You do this, unlock the blight, but I want there to be a very sad or unsuspected ending." style="whiteSpace=wrap;html=1;rounded=0;" parent="1" vertex="1">
          <mxGeometry x="890" y="55" width="260" height="150" as="geometry" />
        </mxCell>
        <mxCell id="fSI3svkAlForpk4qqhjv-2" value="" style="edgeStyle=orthogonalEdgeStyle;rounded=0;orthogonalLoop=1;jettySize=auto;html=1;" parent="1" source="1wYPcUTcYn6zx2gRJm-w-3" target="fSI3svkAlForpk4qqhjv-1" edge="1">
          <mxGeometry relative="1" as="geometry" />
        </mxCell>
        <mxCell id="1wYPcUTcYn6zx2gRJm-w-3" value="Also, not only do you have to scout for food, but you also might have to fight monsters and other creatures that you encounter while in the depths. I&#39;m naming the studio that made this game, uncommon studios." style="whiteSpace=wrap;html=1;rounded=0;" parent="1" vertex="1">
          <mxGeometry x="1230" y="50" width="120" height="160" as="geometry" />
        </mxCell>
        <mxCell id="fSI3svkAlForpk4qqhjv-1" value="And also, to get a lot of gameplay time, it&#39;s important that we make side quests.&lt;div&gt;&lt;br&gt;&lt;/div&gt;&lt;div&gt;Finally, if you need more information, check out the chime folder on iCloud or the Paper app&lt;/div&gt;" style="whiteSpace=wrap;html=1;rounded=0;" parent="1" vertex="1">
          <mxGeometry x="1390" y="50" width="120" height="160" as="geometry" />
        </mxCell>
      </root>
    </mxGraphModel>
  </diagram>
</mxfile>
